# AST/ASF file generated using VICON BodyLanguage
# -----------------------------------------------
:version 1.10
:name VICON
:units
  mass 1.0
  length 0.45
  angle deg
:documentation
   .ast/.asf automatically generated from VICON data using
   VICON BodyBuilder and BodyLanguage model FoxedUp or BRILLIANT.MOD
:root
   order TX TY TZ RX RY RZ
   axis XYZ
   position 0 0 0  
   orientation 0 0 0 
:bonedata
  begin
     id 1 
     name lhipjoint
     direction 0.606768 -0.715223 0.346827 
     length 2.41543 
     axis 0 0 0  XYZ
  end
  begin
     id 2 
     name lfemur
     direction 0.34202 -0.939693 0  
     length 7.2778  
     axis 0 0 20  XYZ
    dof rx ry rz
    limits (-160.0 20.0)
           (-70.0 70.0)
           (-60.0 70.0)
  end
  begin
     id 3 
     name ltibia
     direction 0.34202 -0.939693 0   
     length 7.61811   
     axis 0 0 20   XYZ
    dof rx
    limits (-10.0 170.0)
  end
  begin
     id 4 
     name lfoot
     direction 0.0823924 -0.226371 0.97055   
     length 2.33618   
     axis -90 7.62852e-016 20   XYZ
    dof rx rz
    limits (-45.0 90.0)
           (-70.0 20.0)
  end
  begin
     id 5 
     name ltoes
     direction 1.53554e-011 -4.21934e-011 1   
     length 1.17015   
     axis -90 7.62852e-016 20   XYZ
    dof rx
    limits (-90.0 20.0)
  end
  begin
     id 6 
     name rhipjoint
     direction -0.6077 -0.714582 0.346516   
     length 2.4176  
     axis 0 0 0  XYZ 
  end
  begin
     id 7 
     name rfemur
     direction -0.34202 -0.939693 0   
     length 7.28127   
     axis 0 0 -20   XYZ
    dof rx ry rz
    limits (-160.0 20.0)
           (-70.0 70.0)
           (-70.0 60.0)
  end
  begin
     id 8 
     name rtibia
     direction -0.34202 -0.939693 0   
     length 7.77648   
     axis 0 0 -20   XYZ
    dof rx
    limits (-10.0 170.0)
 end
 begin
     id 9 
     name rfoot
     direction -0.0809463 -0.222398 0.97159   
     length 2.37533  
     axis -90 -7.62852e-016 -20   XYZ
    dof rx rz
    limits (-45.0 90.0)
           (-20.0 70.0)
  end
  begin
     id 10 
     name rtoes
     direction -1.53568e-011 -4.21714e-011 1   
     length 1.18972   
     axis -90 -7.62852e-016 -20   XYZ
    dof rx
    limits (-90.0 20.0)
  end
  begin
     id 11 
     name lowerback
     direction 0.010968 0.991932 -0.126297   
     length 2.21698   
     axis 0 0 0   XYZ
    dof rx ry rz
    limits (-20.0 45.0)
           (-30.0 30.0)
           (-30.0 30.0)
  end
  begin
     id 12 
     name upperback
     direction 0.0167007 0.997503 -0.0686276   
     length 2.22371   
     axis 0 0 0   XYZ
    dof rx ry rz
    limits (-20.0 45.0)
           (-30.0 30.0)
           (-30.0 30.0)
  end
  begin
     id 13 
     name thorax
     direction 0.0111721 0.999885 -0.0102878   
     length 2.25242   
     axis 0 0 0   XYZ
    dof rx ry rz
    limits (-20.0 45.0)
           (-30.0 30.0)
           (-30.0 30.0)
  end
  begin
     id 14 
     name lowerneck
     direction -0.0120265 0.990428 0.137508   
     length 1.57674   
     axis 0 0 0   XYZ
    dof rx ry rz
    limits (-20.0 45.0)
           (-30.0 30.0)
           (-30.0 30.0)
  end
  begin
     id 15 
     name upperneck
     direction 0.0175669 0.998907 0.0433089   
     length 1.5618   
     axis 0 0 0   XYZ
    dof rx ry rz
    limits (-20.0 45.0)
           (-30.0 30.0)
           (-30.0 30.0)
  end
  begin
     id 16
     name head
     direction 0.00754609 0.99997 0.00185367  
     length 1.60579  
     axis 0 0 0   XYZ
    dof rx ry rz
    limits (-20.0 45.0)
           (-30.0 30.0)
           (-30.0 30.0)
  end
  begin
     id 17 
     name lclavicle
     direction 0.885866 0.429166 -0.176231  
     length 3.44967  
     axis 0 0 0   XYZ
    dof ry rz
    limits (-20.0 10.0)
           (0.0 20.0)
  end
  begin
     id 18 
     name lhumerus
     direction 1 -4.48973e-011 -1.90255e-027   
     length 5.20607   
     axis 180 -30 -90   XYZ
    dof rx ry rz
    limits (-60.0 90.0)
           (-90.0 90.0)
           (-90.0 90.0)
  end
  begin
     id 19
     name lradius
     direction 1 -4.48956e-011 9.87925e-027   
     length 3.39961   
     axis 180 -30 -90   XYZ
    dof rx
    limits (-10.0 170.0)
  end
  begin
     id 20
     name lwrist
     direction 1 -4.48985e-011 1.73247e-026   
     length 1.6998   
     axis -9.60847e-015 90 90   XYZ
    dof ry
    limits (-180.0 0.0)
 end
  begin
     id 21 
     name lhand
     direction 1 -4.48798e-011 3.46119e-026   
     length 0.519693   
     axis -2.21073e-014 90 90   XYZ
    dof rx rz
    limits (-90.0 90.0)
           (-45.0 45.0)
  end
  begin
     id 22 
     name lfingers
     direction 1 -4.48938e-011 6.92797e-026   
     length 0.41899   
     axis -4.42155e-014 90 90   XYZ
    dof rx
    limits (0.0 90.0)
  end
  begin
     id 23
     name lthumb
     direction 0.707107 -6.34952e-011 0.707107   
     length 0.601588   
     axis -90 45 6.0103e-014   XYZ
    dof rx rz
    limits (-45.0 45.0)
           (-45.0 45.0)
  end
  begin
     id 24 
     name rclavicle
     direction -0.866736 0.456792 -0.200276   
     length 3.45032  
     axis 0 0 0   XYZ 
    dof ry rz
    limits (-10.0 20.0)
           (-20.0 0.0)
  end
  begin
     id 25 
     name rhumerus
     direction -1 -4.4897e-011 8.65094e-028  
     length 5.32214   
     axis 180 30 90   XYZ
    dof rx ry rz
    limits (-90.0 60.0)
           (-90.0 90.0)
           (-90.0 90.0)
  end
  begin
     id 26 
     name rradius
     direction -1 -4.48987e-011 1.08427e-026   
     length 3.51208   
     axis 180 30 90   XYZ
    dof rx
    limits (-10.0 170.0)
  end
  begin
     id 27 
     name rwrist
     direction -1 -4.48961e-011 1.73222e-026   
     length 1.75604   
     axis -9.60847e-015 -90 -90   XYZ
    dof ry
    limits (-180.0 0.0)
  end
  begin
     id 28
     name rhand
     direction -1 -4.48895e-011 3.46314e-026   
     length 0.586681   
     axis -2.21073e-014 -90 -90   XYZ
    dof rx rz
    limits (-90.0 90.0)
           (-45.0 45.0)
  end
  begin
     id 29
     name rfingers
     direction -1 -4.48968e-011 6.92916e-026   
     length 0.472997   
     axis -4.42155e-014 -90 -90   XYZ
    dof rx
    limits (0.0 90.0)
  end
  begin
     id 30
     name rthumb
     direction -0.707107 -6.34848e-011 0.707107   
     length 0.679133   
     axis -90 -45 -6.0103e-014   XYZ
    dof rx rz
    limits (-45.0 45.0)
           (-45.0 45.0)
  end
:hierarchy
  begin
    root lhipjoint rhipjoint lowerback
    lhipjoint lfemur
    lfemur ltibia
    ltibia lfoot
    lfoot ltoes
    rhipjoint rfemur
    rfemur rtibia
    rtibia rfoot
    rfoot rtoes
    lowerback upperback
    upperback thorax
    thorax lowerneck lclavicle rclavicle
    lowerneck upperneck
    upperneck head
    lclavicle lhumerus
    lhumerus lradius
    lradius lwrist
    lwrist lhand lthumb
    lhand lfingers
    rclavicle rhumerus
    rhumerus rradius
    rradius rwrist
    rwrist rhand rthumb
    rhand rfingers
  end

#!OML:ASF H:\Dans Jumps\Project 1\Capture day 1\Session 1\subject.ASF
:FULLY-SPECIFIED
:DEGREES
43
root 0.399933 17.5698 -13.6602 6.34281 -0.148859 -1.44397
lowerback -2.70597 -0.636943 0.0517478
upperback 2.8632 -0.921663 1.67236
thorax 4.49826 -0.486314 1.63759
lowerneck -13.2436 0.514162 -1.44765
upperneck 30.0843 1.13631 -0.0596891
head 12.0682 0.331913 0.387708
rclavicle -3.27995e-015 7.15625e-015
rhumerus -25.8124 -21.1998 -77.2415
rradius 24.3161
rwrist 33.1147
rhand -20.5003 -27.5861
rfingers 7.12502
rthumb 5.85678 -57.4851
lclavicle -3.27995e-015 7.15625e-015
lhumerus -21.894 1.8584 88.1381
lradius 17.973
lwrist 1.74173
lhand -25.9732 -6.1593
lfingers 7.12502
lthumb 0.571667 23.8197
rfemur -12.6808 -2.59195 19.9113
rtibia 21.5172
rfoot -14.0338 -1.90861
rtoes 10.3429
lfemur -10.9695 6.48136 -17.9426
ltibia 18.506
lfoot -11.9464 4.8398
ltoes 2.06011
44
root 0.402871 17.5688 -13.6581 6.3193 -0.150345 -1.44949
lowerback -2.71903 -0.639011 0.0521496
upperback 2.85236 -0.924427 1.67264
thorax 4.49449 -0.487623 1.63737
lowerneck -13.2658 0.517727 -1.43763
upperneck 30.0889 1.14257 -0.0701822
head 12.0747 0.334392 0.383037
rclavicle -3.37934e-015 -2.38542e-015
rhumerus -25.906 -21.253 -77.2108
rradius 24.289
rwrist 33.1576
rhand -20.5163 -27.551
rfingers 7.12502
rthumb 5.84132 -57.4505
lclavicle -3.37934e-015 -2.38542e-015
lhumerus -21.8948 2.01068 88.0658
lradius 17.9014
lwrist 1.64222
lhand -25.9289 -6.04199
lfingers 7.12502
lthumb 0.614458 23.9369
rfemur -12.6526 -2.57993 19.9054
rtibia 21.528
rfoot -14.0477 -1.93207
rtoes 10.2818
lfemur -10.948 6.50765 -17.9444
ltibia 18.5309
lfoot -11.9774 4.81967
ltoes 2.08272
45
root 0.405839 17.568 -13.6564 6.29819 -0.154531 -1.45377
lowerback -2.73121 -0.641114 0.0497542
upperback 2.84167 -0.927143 1.67407
thorax 4.49041 -0.48902 1.63991
lowerneck -13.2866 0.519616 -1.43978
upperneck 30.0946 1.14703 -0.0723017
head 12.0813 0.33574 0.383364
rclavicle -1.93815e-015 -6.16232e-015
rhumerus -25.9963 -21.2982 -77.1802
rradius 24.2612
rwrist 33.1981
rhand -20.5351 -27.5207
rfingers 7.12502
rthumb 5.82326 -57.4207
lclavicle -1.93815e-015 -6.16232e-015
lhumerus -21.8958 2.15478 87.9972
lradius 17.8362
lwrist 1.55976
lhand -25.9007 -5.97418
lfingers 7.12502
lthumb 0.641662 24.0046
rfemur -12.6303 -2.56365 19.8975
rtibia 21.5449
rfoot -14.0649 -1.95339
rtoes 10.2459
lfemur -10.9291 6.53767 -17.948
ltibia 18.5543
lfoot -12.007 4.79699
ltoes 2.10976
46
root 0.409096 17.5671 -13.655 6.27923 -0.1602 -1.43892
lowerback -2.74405 -0.646055 0.0282074
upperback 2.83002 -0.93256 1.67156
thorax 4.48607 -0.49231 1.64896
lowerneck -13.3044 0.523655 -1.46138
upperneck 30.105 1.15531 -0.0600899
head 12.0889 0.338371 0.392987
rclavicle 1.65488e-014 -1.61016e-014
rhumerus -26.0894 -21.331 -77.1512
rradius 24.2441
rwrist 33.2308
rhand -20.5484 -27.5021
rfingers 7.12502
rthumb 5.81035 -57.4024
lclavicle 1.65488e-014 -1.61016e-014
lhumerus -21.9027 2.29893 87.9305
lradius 17.7801
lwrist 1.48913
lhand -25.8748 -5.87121
lfingers 7.12502
lthumb 0.666708 24.1075
rfemur -12.6158 -2.55649 19.8677
rtibia 21.5688
rfoot -14.0845 -1.96515
rtoes 10.2218
lfemur -10.9126 6.56817 -17.9744
ltibia 18.576
lfoot -12.0349 4.77388
ltoes 2.13543
47
root 0.412403 17.5662 -13.6539 6.26161 -0.166518 -1.42982
lowerback -2.75749 -0.649248 0.014369
upperback 2.8212 -0.936098 1.67
thorax 4.48483 -0.494449 1.65477
lowerneck -13.3282 0.524678 -1.48759
upperneck 30.1163 1.16 -0.0458144
head 12.0981 0.339123 0.403723
rclavicle -3.08116e-015 -9.93923e-016
rhumerus -26.1747 -21.372 -77.1217
rradius 24.2217
rwrist 33.267
rhand -20.5489 -27.4956
rfingers 7.12502
rthumb 5.80993 -57.3959
lclavicle -3.08116e-015 -9.93923e-016
lhumerus -21.9115 2.43734 87.8651
lradius 17.7387
lwrist 1.42065
lhand -25.8326 -5.69951
lfingers 7.12502
lthumb 0.707391 24.2791
rfemur -12.6068 -2.54889 19.8445
rtibia 21.5976
rfoot -14.1049 -1.97672
rtoes 10.1961
lfemur -10.8995 6.60238 -17.9946
ltibia 18.5994
lfoot -12.0627 4.74824
ltoes 2.15372
48
root 0.415736 17.5652 -13.6529 6.2443 -0.175725 -1.42123
lowerback -2.77135 -0.650861 0.00170796
upperback 2.81582 -0.937633 1.66835
thorax 4.48733 -0.495579 1.65995
lowerneck -13.3603 0.525473 -1.51454
upperneck 30.1297 1.16481 -0.0316011
head 12.1098 0.339799 0.414638
rclavicle -1.19271e-015 7.95139e-016
rhumerus -26.2522 -21.4122 -77.0941
rradius 24.199
rwrist 33.2971
rhand -20.5355 -27.4975
rfingers 7.12502
rthumb 5.82279 -57.3975
lclavicle -1.19271e-015 7.95139e-016
lhumerus -21.923 2.57877 87.7984
lradius 17.7087
lwrist 1.34018
lhand -25.7631 -5.4555
lfingers 7.12502
lthumb 0.774565 24.5228
rfemur -12.6003 -2.53972 19.8218
rtibia 21.6286
rfoot -14.1253 -1.98623
rtoes 10.177
lfemur -10.8895 6.64017 -18.0142
ltibia 18.6272
lfoot -12.0908 4.72248
ltoes 2.164
49
root 0.419024 17.5642 -13.652 6.22768 -0.184953 -1.42324
lowerback -2.78543 -0.650336 0.00111994
upperback 2.81484 -0.937063 1.66908
thorax 4.49433 -0.495344 1.66094
lowerneck -13.399 0.526614 -1.53415
upperneck 30.141 1.17054 -0.0244775
head 12.1222 0.340825 0.421777
rclavicle 8.44835e-016 -5.1684e-015
rhumerus -26.3164 -21.4697 -77.0646
rradius 24.165
rwrist 33.3414
rhand -20.5071 -27.5109
rfingers 7.12502
rthumb 5.85023 -57.4101
lclavicle 8.44835e-016 -5.1684e-015
lhumerus -21.9309 2.71196 87.7332
lradius 17.6872
lwrist 1.25665
lhand -25.6664 -5.15511
lfingers 7.12502
lthumb 0.867932 24.8229
rfemur -12.5928 -2.52499 19.8112
rtibia 21.6561
rfoot -14.1431 -2.00034
rtoes 10.1539
lfemur -10.8869 6.68128 -18.022
ltibia 18.6659
lfoot -12.1222 4.69659
ltoes 2.16142
50
root 0.422255 17.5629 -13.6512 6.2098 -0.196524 -1.43692
lowerback -2.79976 -0.646485 0.014506
upperback 2.81979 -0.93289 1.67138
thorax 4.50732 -0.492934 1.65594
lowerneck -13.4434 0.527799 -1.54295
upperneck 30.1493 1.17538 -0.0232464
head 12.1347 0.341956 0.424723
rclavicle -5.31749e-015 -1.78906e-015
rhumerus -26.3682 -21.5379 -77.0363
rradius 24.1221
rwrist 33.3932
rhand -20.4715 -27.5333
rfingers 7.12502
rthumb 5.8846 -57.4316
lclavicle -5.31749e-015 -1.78906e-015
lhumerus -21.9321 2.82383 87.671
lradius 17.6676
lwrist 1.1799
lhand -25.56 -4.87391
lfingers 7.12502
lthumb 0.970757 25.1036
rfemur -12.5824 -2.50231 19.8135
rtibia 21.6801
rfoot -14.1585 -2.01989
rtoes 10.1189
lfemur -10.8881 6.7251 -18.0165
ltibia 18.7143
lfoot -12.1574 4.6734
ltoes 2.15044
51
root 0.425476 17.5616 -13.6502 6.18907 -0.211987 -1.45708
lowerback -2.81324 -0.639825 0.0356858
upperback 2.82972 -0.925453 1.67445
thorax 4.52482 -0.488693 1.64758
lowerneck -13.4868 0.529431 -1.54481
upperneck 30.1534 1.18029 -0.0262611
head 12.1453 0.343406 0.424855
rclavicle 3.926e-015 -1.19271e-015
rhumerus -26.4093 -21.6207 -77.0061
rradius 24.0684
rwrist 33.4591
rhand -20.4341 -27.557
rfingers 7.12502
rthumb 5.92067 -57.4543
lclavicle 3.926e-015 -1.19271e-015
lhumerus -21.927 2.91022 87.6151
lradius 17.648
lwrist 1.12124
lhand -25.4807 -4.71054
lfingers 7.12502
lthumb 1.04729 25.2666
rfemur -12.5668 -2.47309 19.8226
rtibia 21.7
rfoot -14.1713 -2.04201
rtoes 10.0783
lfemur -10.8909 6.77326 -18.004
ltibia 18.7731
lfoot -12.1978 4.6519
ltoes 2.13354
